<mxfile host="app.diagrams.net" agent="Mozilla/5.0 (Macintosh; Intel Mac OS X 10_15_7) AppleWebKit/537.36 (KHTML, like Gecko) Chrome/128.0.0.0 Safari/537.36" version="24.7.15">
  <diagram name="Page-1" id="VjhqY1tu9hH2PhLGvski">
    <mxGraphModel dx="937" dy="525" grid="1" gridSize="10" guides="1" tooltips="1" connect="1" arrows="1" fold="1" page="1" pageScale="1" pageWidth="827" pageHeight="1169" math="0" shadow="0">
      <root>
        <mxCell id="0" />
        <mxCell id="1" parent="0" />
        <mxCell id="SlPikVJv9QezjSOvh8XO-5" value="" style="edgeStyle=orthogonalEdgeStyle;rounded=0;orthogonalLoop=1;jettySize=auto;html=1;sketch=1;curveFitting=1;jiggle=2;" parent="1" source="SlPikVJv9QezjSOvh8XO-2" target="SlPikVJv9QezjSOvh8XO-4" edge="1">
          <mxGeometry relative="1" as="geometry" />
        </mxCell>
        <mxCell id="LVGfei46DY5WVFxhkSFh-33" value="1/10min" style="edgeLabel;html=1;align=center;verticalAlign=middle;resizable=0;points=[];" vertex="1" connectable="0" parent="SlPikVJv9QezjSOvh8XO-5">
          <mxGeometry x="-0.125" relative="1" as="geometry">
            <mxPoint as="offset" />
          </mxGeometry>
        </mxCell>
        <mxCell id="SlPikVJv9QezjSOvh8XO-2" value="Task-serve" style="rounded=1;whiteSpace=wrap;html=1;strokeWidth=2;fillWeight=4;hachureGap=8;hachureAngle=45;fillColor=none;sketch=1;" parent="1" vertex="1">
          <mxGeometry x="50" y="180" width="120" height="530" as="geometry" />
        </mxCell>
        <mxCell id="SlPikVJv9QezjSOvh8XO-4" value="" style="whiteSpace=wrap;html=1;fillColor=none;rounded=1;strokeWidth=2;fillWeight=4;hachureGap=8;hachureAngle=45;sketch=1;glass=0;shadow=0;arcSize=4;" parent="1" vertex="1">
          <mxGeometry x="250" y="180" width="850" height="530" as="geometry" />
        </mxCell>
        <mxCell id="SlPikVJv9QezjSOvh8XO-9" value="" style="edgeStyle=orthogonalEdgeStyle;rounded=0;orthogonalLoop=1;jettySize=auto;html=1;sketch=1;curveFitting=1;jiggle=2;" parent="1" source="SlPikVJv9QezjSOvh8XO-7" target="SlPikVJv9QezjSOvh8XO-8" edge="1">
          <mxGeometry relative="1" as="geometry" />
        </mxCell>
        <mxCell id="SlPikVJv9QezjSOvh8XO-7" value="start" style="ellipse;whiteSpace=wrap;html=1;strokeWidth=2;fillWeight=2;hachureGap=8;fillColor=none;fillStyle=dots;sketch=1;" parent="1" vertex="1">
          <mxGeometry x="280" y="210" width="120" height="60" as="geometry" />
        </mxCell>
        <mxCell id="SlPikVJv9QezjSOvh8XO-11" value="" style="edgeStyle=orthogonalEdgeStyle;rounded=0;orthogonalLoop=1;jettySize=auto;html=1;sketch=1;curveFitting=1;jiggle=2;" parent="1" source="SlPikVJv9QezjSOvh8XO-8" target="SlPikVJv9QezjSOvh8XO-10" edge="1">
          <mxGeometry relative="1" as="geometry" />
        </mxCell>
        <mxCell id="SlPikVJv9QezjSOvh8XO-12" value="y" style="edgeLabel;html=1;align=center;verticalAlign=middle;resizable=0;points=[];" parent="SlPikVJv9QezjSOvh8XO-11" vertex="1" connectable="0">
          <mxGeometry x="-0.2167" y="-1" relative="1" as="geometry">
            <mxPoint y="-3" as="offset" />
          </mxGeometry>
        </mxCell>
        <mxCell id="SlPikVJv9QezjSOvh8XO-8" value="&lt;font style=&quot;font-size: 9px;&quot;&gt;isProcess&lt;/font&gt;&lt;div style=&quot;font-size: 9px;&quot;&gt;&lt;font style=&quot;font-size: 9px;&quot;&gt;judgement execute time and dynamic switch&lt;/font&gt;&lt;/div&gt;" style="rhombus;whiteSpace=wrap;html=1;fillColor=none;strokeWidth=2;fillWeight=2;hachureGap=8;fillStyle=dots;sketch=1;fontSize=7;" parent="1" vertex="1">
          <mxGeometry x="500" y="200" width="90" height="80" as="geometry" />
        </mxCell>
        <mxCell id="SlPikVJv9QezjSOvh8XO-14" value="" style="edgeStyle=orthogonalEdgeStyle;rounded=0;orthogonalLoop=1;jettySize=auto;html=1;sketch=1;curveFitting=1;jiggle=2;" parent="1" source="SlPikVJv9QezjSOvh8XO-10" target="SlPikVJv9QezjSOvh8XO-13" edge="1">
          <mxGeometry relative="1" as="geometry" />
        </mxCell>
        <mxCell id="SlPikVJv9QezjSOvh8XO-15" value="y" style="edgeLabel;html=1;align=center;verticalAlign=middle;resizable=0;points=[];" parent="SlPikVJv9QezjSOvh8XO-14" vertex="1" connectable="0">
          <mxGeometry x="-0.0066" y="-1" relative="1" as="geometry">
            <mxPoint y="-1" as="offset" />
          </mxGeometry>
        </mxCell>
        <mxCell id="SlPikVJv9QezjSOvh8XO-10" value="&lt;font size=&quot;1&quot;&gt;handler status judgement&lt;/font&gt;" style="rhombus;whiteSpace=wrap;html=1;fillColor=none;strokeWidth=2;fillWeight=2;hachureGap=8;fillStyle=dots;sketch=1;fontSize=7;" parent="1" vertex="1">
          <mxGeometry x="670" y="200" width="90" height="80" as="geometry" />
        </mxCell>
        <mxCell id="SlPikVJv9QezjSOvh8XO-17" value="" style="edgeStyle=orthogonalEdgeStyle;rounded=0;orthogonalLoop=1;jettySize=auto;html=1;sketch=1;curveFitting=1;jiggle=2;" parent="1" source="SlPikVJv9QezjSOvh8XO-13" target="SlPikVJv9QezjSOvh8XO-16" edge="1">
          <mxGeometry relative="1" as="geometry" />
        </mxCell>
        <mxCell id="SlPikVJv9QezjSOvh8XO-13" value="mark the related handler as running" style="whiteSpace=wrap;html=1;fontSize=10;fillColor=none;strokeWidth=2;fillWeight=2;hachureGap=8;fillStyle=dots;sketch=1;" parent="1" vertex="1">
          <mxGeometry x="825" y="210" width="120" height="60" as="geometry" />
        </mxCell>
        <mxCell id="SlPikVJv9QezjSOvh8XO-16" value="" style="whiteSpace=wrap;html=1;fontSize=10;fillColor=none;strokeWidth=2;fillWeight=2;hachureGap=8;fillStyle=dots;sketch=1;" parent="1" vertex="1">
          <mxGeometry x="270" y="330" width="680" height="270" as="geometry" />
        </mxCell>
        <mxCell id="SlPikVJv9QezjSOvh8XO-19" value="Loop" style="text;strokeColor=none;fillColor=none;html=1;fontSize=12;fontStyle=1;verticalAlign=middle;align=center;" parent="1" vertex="1">
          <mxGeometry x="250" y="320" width="100" height="40" as="geometry" />
        </mxCell>
        <mxCell id="LVGfei46DY5WVFxhkSFh-4" value="" style="edgeStyle=orthogonalEdgeStyle;rounded=0;orthogonalLoop=1;jettySize=auto;html=1;flowAnimation=0;sketch=1;curveFitting=1;jiggle=2;" edge="1" parent="1" source="LVGfei46DY5WVFxhkSFh-2" target="LVGfei46DY5WVFxhkSFh-3">
          <mxGeometry relative="1" as="geometry" />
        </mxCell>
        <mxCell id="LVGfei46DY5WVFxhkSFh-2" value="query account list&lt;div style=&quot;font-size: 10px;&quot;&gt;each time: 50&lt;br style=&quot;font-size: 10px;&quot;&gt;&lt;/div&gt;" style="ellipse;whiteSpace=wrap;html=1;strokeWidth=2;fillWeight=2;hachureGap=8;fillColor=none;fillStyle=dots;sketch=1;fontSize=10;" vertex="1" parent="1">
          <mxGeometry x="290" y="365" width="100" height="50" as="geometry" />
        </mxCell>
        <mxCell id="LVGfei46DY5WVFxhkSFh-13" value="" style="edgeStyle=orthogonalEdgeStyle;rounded=0;orthogonalLoop=1;jettySize=auto;html=1;sketch=1;curveFitting=1;jiggle=2;" edge="1" parent="1" source="LVGfei46DY5WVFxhkSFh-3" target="LVGfei46DY5WVFxhkSFh-12">
          <mxGeometry relative="1" as="geometry" />
        </mxCell>
        <mxCell id="LVGfei46DY5WVFxhkSFh-14" value="y" style="edgeLabel;html=1;align=center;verticalAlign=middle;resizable=0;points=[];" vertex="1" connectable="0" parent="LVGfei46DY5WVFxhkSFh-13">
          <mxGeometry x="-0.0875" y="1" relative="1" as="geometry">
            <mxPoint as="offset" />
          </mxGeometry>
        </mxCell>
        <mxCell id="LVGfei46DY5WVFxhkSFh-3" value="isProcess and account list is not null" style="rhombus;whiteSpace=wrap;html=1;fillColor=none;strokeWidth=2;fillWeight=2;hachureGap=8;fillStyle=dots;sketch=1;fontSize=9;" vertex="1" parent="1">
          <mxGeometry x="502.5" y="350" width="85" height="80" as="geometry" />
        </mxCell>
        <mxCell id="LVGfei46DY5WVFxhkSFh-17" value="" style="edgeStyle=orthogonalEdgeStyle;rounded=0;orthogonalLoop=1;jettySize=auto;html=1;sketch=1;curveFitting=1;jiggle=2;" edge="1" parent="1" source="LVGfei46DY5WVFxhkSFh-12" target="LVGfei46DY5WVFxhkSFh-16">
          <mxGeometry relative="1" as="geometry" />
        </mxCell>
        <mxCell id="LVGfei46DY5WVFxhkSFh-18" value="y" style="edgeLabel;html=1;align=center;verticalAlign=middle;resizable=0;points=[];" vertex="1" connectable="0" parent="LVGfei46DY5WVFxhkSFh-17">
          <mxGeometry x="-0.1625" y="1" relative="1" as="geometry">
            <mxPoint as="offset" />
          </mxGeometry>
        </mxCell>
        <mxCell id="LVGfei46DY5WVFxhkSFh-12" value="filter cur sharding need handle the data" style="rhombus;whiteSpace=wrap;html=1;fillColor=none;strokeWidth=2;fillWeight=2;hachureGap=8;fillStyle=dots;sketch=1;fontSize=9;" vertex="1" parent="1">
          <mxGeometry x="667.5" y="350" width="85" height="80" as="geometry" />
        </mxCell>
        <mxCell id="LVGfei46DY5WVFxhkSFh-20" value="" style="edgeStyle=orthogonalEdgeStyle;rounded=0;orthogonalLoop=1;jettySize=auto;html=1;sketch=1;curveFitting=1;jiggle=2;" edge="1" parent="1" source="LVGfei46DY5WVFxhkSFh-16" target="LVGfei46DY5WVFxhkSFh-19">
          <mxGeometry relative="1" as="geometry" />
        </mxCell>
        <mxCell id="LVGfei46DY5WVFxhkSFh-21" value="less than&amp;nbsp;&lt;div style=&quot;font-size: 9px;&quot;&gt;archive end date&lt;/div&gt;" style="edgeLabel;html=1;align=center;verticalAlign=middle;resizable=0;points=[];fontSize=9;" vertex="1" connectable="0" parent="LVGfei46DY5WVFxhkSFh-20">
          <mxGeometry x="-0.1333" relative="1" as="geometry">
            <mxPoint as="offset" />
          </mxGeometry>
        </mxCell>
        <mxCell id="LVGfei46DY5WVFxhkSFh-16" value="account archive start date confirm" style="rhombus;whiteSpace=wrap;html=1;fillColor=none;strokeWidth=2;fillWeight=2;hachureGap=8;fillStyle=dots;sketch=1;fontSize=9;" vertex="1" parent="1">
          <mxGeometry x="832.5" y="350" width="85" height="80" as="geometry" />
        </mxCell>
        <mxCell id="LVGfei46DY5WVFxhkSFh-23" value="" style="edgeStyle=orthogonalEdgeStyle;rounded=0;orthogonalLoop=1;jettySize=auto;html=1;sketch=1;curveFitting=1;jiggle=2;" edge="1" parent="1" source="LVGfei46DY5WVFxhkSFh-19" target="LVGfei46DY5WVFxhkSFh-22">
          <mxGeometry relative="1" as="geometry" />
        </mxCell>
        <mxCell id="LVGfei46DY5WVFxhkSFh-19" value="ticker PnL archive by month" style="whiteSpace=wrap;html=1;fontSize=9;fillColor=none;strokeWidth=2;fillWeight=2;hachureGap=8;fillStyle=dots;sketch=1;" vertex="1" parent="1">
          <mxGeometry x="815" y="520" width="120" height="60" as="geometry" />
        </mxCell>
        <mxCell id="LVGfei46DY5WVFxhkSFh-22" value="account PnL archive by month" style="whiteSpace=wrap;html=1;fontSize=9;fillColor=none;strokeWidth=2;fillWeight=2;hachureGap=8;fillStyle=dots;sketch=1;" vertex="1" parent="1">
          <mxGeometry x="615" y="520" width="120" height="60" as="geometry" />
        </mxCell>
        <mxCell id="LVGfei46DY5WVFxhkSFh-32" value="" style="edgeStyle=orthogonalEdgeStyle;rounded=0;orthogonalLoop=1;jettySize=auto;html=1;sketch=1;curveFitting=1;jiggle=2;exitX=0;exitY=0.5;exitDx=0;exitDy=0;" edge="1" parent="1" source="LVGfei46DY5WVFxhkSFh-22" target="LVGfei46DY5WVFxhkSFh-28">
          <mxGeometry relative="1" as="geometry">
            <mxPoint x="415" y="550" as="sourcePoint" />
          </mxGeometry>
        </mxCell>
        <mxCell id="LVGfei46DY5WVFxhkSFh-28" value="&lt;div style=&quot;font-size: 10px;&quot;&gt;&lt;span style=&quot;font-size: 9px;&quot;&gt;update account archive date&lt;/span&gt;&lt;br&gt;&lt;/div&gt;" style="ellipse;whiteSpace=wrap;html=1;strokeWidth=2;fillWeight=2;hachureGap=8;fillColor=none;fillStyle=dots;sketch=1;fontSize=10;" vertex="1" parent="1">
          <mxGeometry x="450" y="525" width="100" height="50" as="geometry" />
        </mxCell>
        <mxCell id="LVGfei46DY5WVFxhkSFh-34" value="&lt;div style=&quot;font-size: 10px;&quot;&gt;mark the related handler as stop&lt;br&gt;&lt;/div&gt;" style="ellipse;whiteSpace=wrap;html=1;strokeWidth=2;fillWeight=2;hachureGap=8;fillColor=none;fillStyle=dots;sketch=1;fontSize=10;" vertex="1" parent="1">
          <mxGeometry x="990" y="210" width="100" height="50" as="geometry" />
        </mxCell>
        <mxCell id="LVGfei46DY5WVFxhkSFh-37" value="" style="edgeStyle=orthogonalEdgeStyle;rounded=0;orthogonalLoop=1;jettySize=auto;html=1;sketch=1;curveFitting=1;jiggle=2;exitX=1;exitY=0.5;exitDx=0;exitDy=0;entryX=0;entryY=0.5;entryDx=0;entryDy=0;" edge="1" parent="1" source="SlPikVJv9QezjSOvh8XO-16" target="LVGfei46DY5WVFxhkSFh-34">
          <mxGeometry relative="1" as="geometry">
            <mxPoint x="885" y="440" as="sourcePoint" />
            <mxPoint x="885" y="530" as="targetPoint" />
          </mxGeometry>
        </mxCell>
      </root>
    </mxGraphModel>
  </diagram>
</mxfile>
